<svg xmlns="http://www.w3.org/2000/svg" xmlns:xlink="http://www.w3.org/1999/xlink" width="18" height="18"><defs><path id="a" d="M1285 32.81a7.8 7.8 0 1 0 0-15.61 7.8 7.8 0 0 0 0 15.61zm0 1.19a9 9 0 1 1 0-18 9 9 0 0 1 0 18z"/><path id="b" d="M1285.84 27.88c.52 0 .91-.1 1.19-.31.27-.2.41-.5.41-.9 0-.78-.53-1.16-1.6-1.16h-2.03v2.37zm-4.05-7.29h7.08v1.62h-5.06V24h2.43c1.06 0 1.87.23 2.43.67.55.44.83 1.08.83 1.92 0 .88-.3 1.56-.93 2.04-.62.49-1.5.73-2.62.73h-4.16z"/></defs><use fill="#858585" xlink:href="#a" transform="translate(-1276 -16)"/><use fill="#858585" xlink:href="#b" transform="translate(-1276 -16)"/></svg>