<svg xmlns="http://www.w3.org/2000/svg" xmlns:xlink="http://www.w3.org/1999/xlink" width="14" height="12"><defs><path id="a" d="M872.38 827.3l.87-.84c.2.13.46.19.75.19a1.62 1.62 0 0 0 1.62-1.65v-.22c-.21.14-.42.22-.63.22a.81.81 0 0 1-.25-.03l1.56-1.6a2.87 2.87 0 0 1-.32 3.62c-.55.56-1.21.84-1.98.84-.6 0-1.15-.17-1.62-.53zm-.36-4.3a2.69 2.69 0 0 1 1.98-.84c.6 0 1.15.17 1.63.53l-1.6 1.56a.8.8 0 0 1-.03-.25c0-.23.08-.45.25-.66H874a1.62 1.62 0 0 0-1.63 1.65c0 .32.06.56.16.75l-.84.84a2.81 2.81 0 0 1 .33-3.58zm7.98-3.28l-.72-.72-2.4 2.44a6.1 6.1 0 0 0-6.28.33c-1.07.7-2.27 1.77-3.6 3.23a27.2 27.2 0 0 0 3.22 3.06l-2.22 2.22.72.72 2.4-2.4a6.1 6.1 0 0 0 4.7.37c.6-.21 1.1-.43 1.5-.66.41-.23.9-.59 1.46-1.08.56-.49.95-.83 1.16-1.04l1.06-1.13a15.76 15.76 0 0 0-3.25-3.12z"/></defs><use fill="#9b9b9b" xlink:href="#a" transform="translate(-867 -819)"/></svg>