<svg xmlns="http://www.w3.org/2000/svg" xmlns:xlink="http://www.w3.org/1999/xlink" width="16" height="28"><defs><path id="a" d="M1177.4 3474h-3.84c-4.31 0-7.1 2.7-7.1 6.9v3.17h-3.86c-.33 0-.6.25-.6.57v4.6c0 .32.27.57.6.57h3.86v11.62c0 .31.27.57.6.57h5.04c.33 0 .6-.26.6-.57v-11.62h4.51c.34 0 .6-.25.6-.57l.01-4.6c0-.15-.06-.3-.18-.4a.62.62 0 0 0-.42-.17h-4.52v-2.7c0-1.29.33-1.95 2.11-1.95h2.59c.33 0 .6-.25.6-.57v-4.27a.59.59 0 0 0-.6-.57z"/></defs><use fill="#e6007e" xlink:href="#a" transform="translate(-1162 -3474)"/></svg>