<svg xmlns="http://www.w3.org/2000/svg" xmlns:xlink="http://www.w3.org/1999/xlink" width="28" height="28"><defs><path id="a" d="M1241 3492.44a4.46 4.46 0 1 1 0-8.9 4.46 4.46 0 0 1 0 8.9zm8-11.44a1 1 0 1 0 0-2 1 1 0 0 0 0 2zm-8 0a7 7 0 1 0 0 14 7 7 0 0 0 0-14zm11.38 12.25a6.13 6.13 0 0 1-6.13 6.13h-10.5a6.13 6.13 0 0 1-6.13-6.13v-10.5a6.13 6.13 0 0 1 6.13-6.13h10.5a6.13 6.13 0 0 1 6.13 6.13zm-6.13-19.25h-10.5a8.75 8.75 0 0 0-8.75 8.75v10.5a8.75 8.75 0 0 0 8.75 8.75h10.5a8.75 8.75 0 0 0 8.75-8.75v-10.5a8.75 8.75 0 0 0-8.75-8.75z"/></defs><use fill="#e6007e" xlink:href="#a" transform="translate(-1227 -3474)"/></svg>