<svg xmlns="http://www.w3.org/2000/svg" xmlns:xlink="http://www.w3.org/1999/xlink"  viewBox="0 0 269 170"><defs><path id="93f9c" d="M959.65 135.53c0-5.27 9.37-6.1 12.98-10.27-2.02 10.69-12.98 4.65-12.98 14.36 0-9.7-10.97-3.67-12.99-14.36 3.6 4.17 12.99 5 12.99 10.27zm42.24-13.76s-2.43-1.75-4.98-1.53c-6.94.6-10.08-5.68-14 .6 3.35.24 2.75 2.2 7.04 4.54s11.94-3.6 11.94-3.6zm-22.38 20.38c-1.04.78-1.31 1.95-1.75 3.14 1.59-1.22 4-.72 5.2-2.33 10.65-14.08-3.72-10.22-.49-20.04.82-2.49-8.23 2.97-3.8 8.38 4.43 5.4 4.19 9.82 2.27 10.4-.58.17-1.14.35-1.68.53zm-38.02 2.83c-.42-1.17-.67-2.32-1.68-3.08-.45-.15-.92-.3-1.41-.44-1.86-.57-2.05-4.86 2.3-10.09 4.36-5.23-4.39-10.55-3.61-8.14 3.04 9.54-10.87 5.77-.67 19.45 1.18 1.58 3.54 1.08 5.07 2.3zm-11.86-19.26c4.29-2.34 3.68-4.3 7.03-4.53-3.92-6.28-7.06 0-14-.6-2.55-.22-4.97 1.53-4.97 1.53s7.64 5.95 11.94 3.6zm44.39-41c0-6.5-4.35-12-10.3-13.75l-1.21 1.2c1.4.38 2.7 1.04 3.83 1.9h.01c.4.32.79.66 1.14 1.02l.05.05.12.12.03.03.13.15.02.02.39.46.03.04.1.13.04.06.11.14.03.04.1.15.04.04.1.14.04.08.09.12.11.2.1.14.03.06.06.12.06.1.06.11.06.1.06.12.04.1.07.13.04.08.06.13.09.2v.01l.05.11.05.12.04.1.05.14.04.1.04.13.04.11.04.14.04.1v.01l.06.22.03.1.04.14.03.12.03.13.02.1.04.17.02.08.03.17.02.09.02.16.02.1.03.24.01.08.02.17.01.12.02.14v.12l.02.15v.27l.01.1v.26a10.97 10.97 0 1 1-21.96 0l.01-.26v-.1l.01-.17v-.1l.02-.15v-.12l.02-.14v-.12l.03-.17v-.08l.04-.24.02-.1.02-.16.02-.09.03-.17.02-.08.04-.17.02-.1.03-.13.03-.12.04-.14.03-.1.06-.22.04-.1.04-.15.04-.1.04-.13.04-.1.05-.14.04-.1.05-.13.05-.1v-.01l.1-.21.05-.13.04-.08.07-.13.05-.1.05-.11.06-.11.06-.11.06-.1.07-.12.03-.06.09-.15.12-.19.08-.12.05-.08.1-.14.02-.04.11-.15.03-.04.1-.14.05-.06.1-.13.03-.04.4-.46.01-.02.13-.15.03-.03.12-.12.05-.05c.36-.36.73-.7 1.14-1.01l.01-.01a10.94 10.94 0 0 1 3.83-1.9l-1.2-1.2a14.35 14.35 0 0 0 4.07 28.1c7.93 0 14.37-6.43 14.37-14.35zm-32.67 35.14c.86 1.49 2.32 4.2 2.2 5.27-.16 1.51-4.92 9.9-1.51 13.27 1.1 1.08 2.62 1.8 4.22 2.32a2.78 2.78 0 0 0 5.2 1.34c1.31.33 2.33.68 2.7 1.21 1.18 1.68.15 3.82.15 3.82s.94 1.66-3.47-1.85c-4.34-3.44-8.5-2.54-9.02-.92a6.2 6.2 0 0 0 .11 3.72c.4.6.7 1.4.87 2.47.6 3.63 5.42 2.67 6.98 6.07 2.82-1.62 2.57-3.08 3.92-3.7 1.26-.6.97 2.39.46 3.9-.5 1.51-5.72.67-4.2 3.86 1.5 3.2 4.07 4.3 3.57 2.63-.5-1.67-.83-2.65 1.6-1 3.05 2.06.53 1.79-.6 2.41-.74.4 1.08 1.24 5.12.89 4.03.35 5.85-.49 5.12-.89-1.14-.62-3.66-.35-.6-2.42 2.42-1.64 2.1-.66 1.6 1.01s2.05.57 3.57-2.63c1.51-3.19-3.7-2.35-4.21-3.86-.5-1.51-.8-4.5.46-3.9 1.35.62 1.1 2.08 3.92 3.7 1.56-3.4 6.39-2.44 6.98-6.07.19-1.12.51-1.95.93-2.57.4-1.15.4-2.44.1-3.53l-.03.01c-.38-1.68-4.62-2.69-9.04.82-4.41 3.51-3.47 1.85-3.47 1.85s-1.03-2.14.15-3.82c.37-.53 1.39-.88 2.7-1.21a2.79 2.79 0 0 0 5.2-1.34 10.8 10.8 0 0 0 4.22-2.32c3.41-3.36-1.35-11.76-1.51-13.27-.12-1.07 1.34-3.78 2.2-5.27 13.3-2.68 22.03-7.85 26.83-11.42 12.8-9.52 6.56-16.14 25.48-29.5-27.2 1.67-14.25 23.26-62.66 26.56-.74.05-1.5.12-2.27.14-4.88.1-5.67 4.75-5.67 5.05-.06-.7-1.8-4.93-6.2-5.08-.92-.03-1.81-.11-2.69-.18-47.32-3.51-34.7-24.83-61.71-26.48 18.91 13.35 12.68 19.97 25.47 29.49 4.8 3.57 13.54 8.74 26.83 11.42z"/><path id="93f9a" d="M954.62 66.78h10.04v7.5h-10.04z"/><path id="93f9e" d="M959.64 69.28h2.52l-2.52 4.63zm0 5l2.51-2.5 2.51-2.5-2.5-2.5h-5.03l-2.5 2.5 2.5 2.5z"/><path id="93f9f" d="M876.3 235.11c-.39.38-.85.56-1.4.56a1.9 1.9 0 0 1-1.33-.51 1.85 1.85 0 0 1-.6-1.26h-.44v1.69h-.61v-3.65h.6v1.48h.47a1.9 1.9 0 0 1 1.91-1.56c.54 0 1 .18 1.39.55.38.38.57.83.57 1.35 0 .53-.19.98-.57 1.35zm-.43-2.32a1.3 1.3 0 0 0-.97-.4 1.34 1.34 0 0 0-1.34 1.37c0 .4.13.72.38.98s.57.4.96.4.7-.14.97-.4c.25-.26.38-.59.38-.97 0-.4-.13-.72-.38-.98zm9.13 2.8H884v-3.65h.85c.83 0 1.24.33 1.24.99 0 .31-.15.54-.46.68.25.06.45.17.59.34.14.16.2.37.2.6 0 .7-.46 1.04-1.4 1.04zm-.22-3.17h-.18v1.07h.24c.2 0 .37-.04.49-.14.12-.09.18-.22.18-.39 0-.36-.25-.54-.73-.54zm.13 1.51h-.3v1.18h.33c.58 0 .86-.2.86-.58 0-.4-.3-.6-.9-.6zm10.78-1.49h-1.53v.93h1.47v.5h-1.47v1.21h1.52v.51h-2.13v-3.65h2.14zm10.18 3.15h-.61v-3.14H904v1.98c0 .4-.05.69-.15.86-.13.22-.35.33-.68.33a1.8 1.8 0 0 1-.37-.04l.07-.52c.07.03.14.04.21.04.12 0 .2-.04.25-.12.05-.1.08-.29.08-.56v-2.48h2.45zm10.21 0h-.6v-2.45l-2.49 2.53v-3.73h.62v2.4l2.47-2.48zm9.11-1.75c-.24.2-.57.3-1 .3h-.37v1.45h-.61v-3.65h.85c1 0 1.5.35 1.5 1.07a1 1 0 0 1-.37.83zm-1.17-1.41h-.2v1.2h.24c.59 0 .88-.2.88-.61 0-.4-.3-.6-.92-.6zm11.65 3.16h-.61v-1.7h-1.77v1.7h-.6v-3.65h.6v1.45h1.77v-1.45h.6zm10.96 0h-.68l-.41-.86h-1.65l-.41.86h-.68l1.91-3.84zm-1.33-1.36l-.59-1.25-.58 1.25zm11.05 1.36h-.6v-1.5h-.2l-1.08 1.5h-.71l1.18-1.54c-.3-.05-.53-.16-.7-.33a.9.9 0 0 1-.24-.65 1 1 0 0 1 .41-.86c.24-.18.56-.27.95-.27h.99zm-.61-1.93v-1.22h-.3c-.56 0-.84.2-.84.6 0 .41.3.62.89.62zm19.52 1.93h-.8l-1.59-1.8v1.8h-.6v-3.65h.6v1.62l1.56-1.62h.78l-1.73 1.72zm10.67-.48c-.4.38-.9.56-1.47.56s-1.05-.18-1.46-.56c-.4-.37-.6-.82-.6-1.35 0-.52.2-.97.6-1.34.4-.38.9-.56 1.46-.56.57 0 1.06.18 1.47.56.4.37.6.82.6 1.34 0 .53-.2.98-.6 1.35zm-.43-2.32c-.28-.27-.63-.4-1.04-.4-.4 0-.75.13-1.03.4a1.3 1.3 0 0 0-.42.97c0 .39.14.71.42.98.28.26.62.39 1.03.39.41 0 .76-.13 1.04-.4.28-.26.42-.58.42-.97 0-.38-.14-.7-.42-.97zm12.46 2.8h-.64l-.36-2.07-1.15 2.16-1.16-2.16-.35 2.07h-.64l.7-3.75 1.45 2.7 1.44-2.7zm10.09 0h-.6v-3.14h-1.75v3.14h-.6v-3.65h2.95zm10.96 0h-.68l-.41-.86h-1.65l-.42.86h-.68l1.92-3.84zm-1.34-1.36l-.59-1.25-.58 1.25zm11.45 1.36h-.6v-1.7h-1.77v1.7h-.61v-3.65h.6v1.45h1.77v-1.45h.61zm10.2 0h-.6v-2.45l-2.47 2.53v-3.73h.61v2.4l2.47-2.48zm9.73 0h-.6v-1.5h-.2l-1.07 1.5h-.72l1.18-1.54c-.3-.05-.52-.16-.69-.33a.9.9 0 0 1-.25-.65 1 1 0 0 1 .42-.86c.24-.18.56-.27.95-.27h.98zm-.61-1.93v-1.22h-.3c-.56 0-.84.2-.84.6 0 .41.3.62.9.62z"/><path id="93f9g" d="M965.58 194.16v-.47h9.2v.47l-2.84.7v19.29l2.83.7v.48h-9.2v-.47l2.6-.71v-15.53l-8.25 12.7v2.83l2.6.7v.48h-9.2v-.47l2.82-.71v-19.29l-2.82-.7v-.47h9.2v.47l-2.6.7v14.82l8.25-12.7v-2.12z"/><path id="93f9h" d="M941.79 193.68c-.54 0-1.08.19-1.63.55-.55.36-1.05.95-1.5 1.78-.46.83-.84 1.94-1.14 3.32-.3 1.38-.45 3.1-.45 5.18 0 2.06.15 3.79.45 5.17.3 1.38.68 2.48 1.13 3.32a4.9 4.9 0 0 0 1.51 1.78c.55.37 1.1.54 1.63.54.53 0 1.08-.17 1.63-.54a4.9 4.9 0 0 0 1.5-1.78c.46-.84.84-1.94 1.14-3.32.3-1.38.44-3.1.44-5.17s-.14-3.8-.44-5.18-.68-2.49-1.13-3.32a4.89 4.89 0 0 0-1.51-1.78 2.96 2.96 0 0 0-1.63-.55m0-.7c1.16 0 2.29.26 3.37.78a8.58 8.58 0 0 1 2.88 2.25c.83 1 1.49 2.2 1.98 3.63.48 1.43.73 3.05.73 4.87 0 1.82-.25 3.44-.73 4.87a11.12 11.12 0 0 1-1.98 3.62 8.56 8.56 0 0 1-2.88 2.26 7.74 7.74 0 0 1-6.77 0 8.67 8.67 0 0 1-2.85-2.26c-.83-.98-1.5-2.2-1.98-3.62a15.06 15.06 0 0 1-.73-4.87c0-1.82.24-3.44.73-4.87a11.18 11.18 0 0 1 1.98-3.63 8.69 8.69 0 0 1 2.85-2.25 7.7 7.7 0 0 1 3.4-.78"/><path id="93f9i" d="M899.82 193.68c-.54 0-1.08.19-1.63.55-.55.36-1.05.95-1.5 1.78-.46.83-.84 1.94-1.14 3.32-.3 1.38-.45 3.1-.45 5.18 0 2.06.15 3.79.45 5.17.3 1.38.68 2.48 1.13 3.32.46.83.96 1.42 1.51 1.78.55.37 1.1.54 1.63.54.53 0 1.07-.17 1.63-.54a4.89 4.89 0 0 0 1.5-1.78c.46-.84.84-1.94 1.14-3.32.3-1.38.44-3.1.44-5.17s-.15-3.8-.44-5.18c-.3-1.38-.68-2.49-1.14-3.32a4.87 4.87 0 0 0-1.5-1.78 2.96 2.96 0 0 0-1.63-.55m0-.7c1.16 0 2.28.26 3.37.78a8.6 8.6 0 0 1 2.88 2.25c.83 1 1.49 2.2 1.98 3.63.48 1.43.73 3.05.73 4.87 0 1.82-.25 3.44-.73 4.87a11.15 11.15 0 0 1-1.98 3.62 8.57 8.57 0 0 1-2.88 2.26 7.74 7.74 0 0 1-6.77 0 8.65 8.65 0 0 1-2.85-2.26c-.83-.98-1.5-2.2-1.98-3.62a15.06 15.06 0 0 1-.73-4.87c0-1.82.24-3.44.73-4.87a11.16 11.16 0 0 1 1.98-3.63 8.68 8.68 0 0 1 2.85-2.25 7.7 7.7 0 0 1 3.4-.78"/><path id="93f9j" d="M859.31 193.68c-.53 0-1.08.19-1.63.55-.55.36-1.05.95-1.5 1.78-.46.83-.84 1.94-1.14 3.32-.3 1.38-.45 3.1-.45 5.18 0 2.06.15 3.79.45 5.17.3 1.38.68 2.48 1.13 3.32a4.9 4.9 0 0 0 1.51 1.78c.55.37 1.1.54 1.63.54.53 0 1.08-.17 1.63-.54a4.88 4.88 0 0 0 1.5-1.78c.46-.84.84-1.94 1.14-3.32.3-1.38.45-3.1.45-5.17s-.15-3.8-.45-5.18c-.3-1.38-.68-2.49-1.13-3.32a4.87 4.87 0 0 0-1.51-1.78 2.97 2.97 0 0 0-1.63-.55m0-.7c1.16 0 2.29.26 3.37.78a8.58 8.58 0 0 1 2.88 2.25c.83 1 1.5 2.2 1.98 3.63.49 1.43.73 3.05.73 4.87 0 1.82-.24 3.44-.73 4.87a11.09 11.09 0 0 1-1.98 3.62 8.56 8.56 0 0 1-2.88 2.26 7.73 7.73 0 0 1-6.76 0 8.65 8.65 0 0 1-2.86-2.26c-.83-.98-1.5-2.2-1.98-3.62a15.02 15.02 0 0 1-.73-4.87c0-1.82.24-3.44.73-4.87a11.17 11.17 0 0 1 1.98-3.63 8.67 8.67 0 0 1 2.86-2.25 7.7 7.7 0 0 1 3.39-.78"/><path id="93f9k" d="M930.23 191.3a4.57 4.57 0 0 0-3.39 2.38h-12a4.57 4.57 0 0 0-3.47-2.55c1.7 1.35 2.17 4.1 1.57 6.47a6.04 6.04 0 0 1-2.17 3.46c3.64-.15 5.17-3.62 4.43-6.43h3.72v19.52l-2.83.7v.47h9.43v-.47l-2.83-.7v-19.52h3.77c-.85 2.84.67 6.45 4.38 6.6-2.91-2.1-3.3-7.78-.6-9.92"/><path id="93f9l" d="M870.44 212.22c.8 0 .97.19 1.32.5.16-.06.32-.13.47-.22a3.9 3.9 0 0 0 1.49-1.78c.42-.88.76-2.08 1.01-3.6s.38-3.5.38-5.9v-6.12l-3.07-.94v-.47h16.25v.47l-2.83.7v19.29l2.83.7v.48h-9.43v-.47l2.83-.71v-19.52h-5.64v6.58c0 3.17-.13 5.74-.4 7.72-.27 1.97-.63 3.5-1.08 4.58-1.58 3.76-6.11 3.43-6.11.69 0-1.1 1.18-1.98 1.98-1.98"/><path id="93f9b" d="M825 180.85h22.6v35.5H825z"/><path id="93f9n" d="M837.32 181.7c1.16 0 2.23.19 3.23.58.99.4 1.84.93 2.54 1.6a7.2 7.2 0 0 1 2.24 5.34 6.48 6.48 0 0 1-2.24 5.15c-.42.36-.85.65-1.3.87a9.14 9.14 0 0 1-3.53 1.04c6.36.6 9.65 5.43 9.32 10.17-.45 6.75-6.4 9.9-11.96 9.9-7 .01-13.02-6.3-9.66-12.61l.18-.31.2-.3.22-.3.23-.27.25-.28.25-.26.27-.24.27-.23.28-.2.28-.2.3-.18.3-.16.3-.14.31-.13.32-.1.33-.1.33-.07.34-.06.34-.04.36-.03h.59l.23.01.22.03.23.03.22.05.22.06.21.06.22.08.2.08.21.1.21.1.2.13.2.12.2.14.18.15.2.16.18.16.17.18.16.18.15.19.14.2.13.2.12.21.1.22.1.22.07.23.07.24.05.24.05.25c.3 2.6-1.1 4.38-2.68 5.18-.92.47-1.9.6-2.66.39-1.52-.43-1.8-2.48-.68-3.31.6-.45 1.53-.54 2.3-.84 1.55-.6 2.13-1.48.88-2.82l-.12-.12-.13-.1-.12-.1-.13-.1-.14-.1-.13-.07-.14-.08-.15-.06-.15-.06-.15-.06-.15-.04-.16-.04-.16-.03-.16-.03-.17-.02h-.17l-.18-.01h-.26l-.26.02-.25.03-.24.04-.24.06-.23.06-.22.08-.22.09-.22.1-.2.11-.2.13-.2.14-.2.14-.18.16-.19.18-.17.18-.17.2-.16.19c-4.18 4.99.98 11.55 8.02 11.75 3.64.11 7.27-2.95 7.62-8.86.18-2.94-.89-5.91-2.71-7.58-1.43-1.3-2.83-2.21-4.72-2.21h-1.41v-.94h1.41c1.54 0 2.83-.57 3.87-1.7 1.04-1.12 1.55-2.76 1.55-4.89 0-1.06-.13-2-.4-2.82a7.08 7.08 0 0 0-1.03-2.07c-.43-.57-.9-.99-1.44-1.27a3.4 3.4 0 0 0-1.6-.42c-2.67 0-4.56 2.28-5.66 4.76l-.18.42-.16.36a4.55 4.55 0 0 1-4.06 2.59c2.9-2.1 3.3-7.77.6-9.92 2.6.43 3.92 2.52 4 4.68a7.34 7.34 0 0 1 3.85-3.46c.6-.25 1.29-.37 2.08-.37"/><path id="93f9o" d="M969.15 187.23c-.61 5.67-9.39 5.77-9.97-.02 2.27 2.77 7.97 2.82 9.97.02"/><path id="93f9p" d="M1056.12 204.47c0 2 .15 3.69.45 5.04.3 1.35.7 2.43 1.18 3.27a4.64 4.64 0 0 0 1.65 1.76c.61.35 1.25.52 1.9.52.83 0 1.6-.16 2.32-.47a6.44 6.44 0 0 0 3.32-3.2c.37-.75.6-1.57.73-2.45h.71c-.12 1-.4 1.94-.82 2.8a7.42 7.42 0 0 1-10.12 3.48 8.66 8.66 0 0 1-2.85-2.26c-.83-.98-1.5-2.2-1.98-3.62a15.04 15.04 0 0 1-.73-4.87c0-1.88.23-3.54.7-4.99.48-1.44 1.1-2.64 1.87-3.6a7.9 7.9 0 0 1 2.69-2.19 7.22 7.22 0 0 1 6.46 0 7.9 7.9 0 0 1 2.68 2.2c.77.95 1.4 2.15 1.87 3.6.47 1.44.7 3.1.7 4.98zm4.24-10.82c-.47 0-.94.15-1.41.44-.47.3-.91.83-1.32 1.58-.4.75-.75 1.76-1.01 3.03a28.44 28.44 0 0 0-.5 4.83h8.48a28.59 28.59 0 0 0-.5-4.83c-.26-1.27-.6-2.28-1-3.03a4.15 4.15 0 0 0-1.33-1.58c-.47-.3-.94-.44-1.4-.44z"/><path id="93f9q" d="M1016.32 204.47c0 2 .15 3.69.45 5.04.3 1.35.7 2.43 1.18 3.27a4.63 4.63 0 0 0 1.65 1.76c.61.35 1.25.52 1.9.52.83 0 1.6-.16 2.32-.47a6.67 6.67 0 0 0 3.33-3.2c.36-.75.6-1.57.73-2.45h.7c-.12 1-.4 1.94-.82 2.8a7.45 7.45 0 0 1-10.11 3.48 8.67 8.67 0 0 1-2.86-2.26c-.83-.98-1.5-2.2-1.98-3.62a15.06 15.06 0 0 1-.73-4.87c0-1.88.23-3.54.7-4.99.48-1.44 1.1-2.64 1.87-3.6a7.9 7.9 0 0 1 2.69-2.19 7.22 7.22 0 0 1 6.46 0 7.9 7.9 0 0 1 2.68 2.2c.77.95 1.4 2.15 1.87 3.6.47 1.44.7 3.1.7 4.98zm4.24-10.82c-.47 0-.94.15-1.41.44-.47.3-.91.83-1.32 1.58-.4.75-.75 1.76-1.01 3.03a28.35 28.35 0 0 0-.5 4.83h8.48a28.43 28.43 0 0 0-.5-4.83c-.26-1.27-.6-2.28-1-3.03a4.17 4.17 0 0 0-1.32-1.58c-.48-.3-.95-.44-1.42-.44z"/><path id="93f9r" d="M1093.68 211.97a4.56 4.56 0 0 0-3.39 2.38h-1.15v-19.52l2.83-.71v-.47h-9.2v.47l2.6.7v19.53h-7.58v-19.52l2.6-.71v-.47h-9.2v.47l2.83.7v19.3l-2.83.7v.47h18.72c-.85 2.84.66 6.45 4.37 6.6-2.9-2.1-3.29-7.77-.6-9.92"/><path id="93f9s" d="M1009.48 191.27a4.57 4.57 0 0 0-3.39 2.38h-12a4.57 4.57 0 0 0-3.47-2.56c1.7 1.35 2.17 4.1 1.57 6.47a6.05 6.05 0 0 1-2.17 3.46c3.64-.15 5.16-3.62 4.43-6.43h3.72v19.53l-2.83.7v.47h9.43v-.47l-2.83-.7v-19.53h3.77c-.85 2.84.66 6.45 4.38 6.6-2.91-2.1-3.3-7.77-.6-9.92"/><path id="93f9t" d="M1031.46 212.18c.8 0 .97.2 1.32.5.16-.06.32-.13.47-.21a3.9 3.9 0 0 0 1.49-1.8c.42-.87.76-2.07 1.01-3.6.25-1.51.38-3.48.38-5.9v-6.11l-3.07-.94v-.47h16.25v.47l-2.83.7v19.3l2.83.7v.47h-9.43v-.47l2.83-.7v-19.53h-5.64v6.58c0 3.17-.13 5.75-.4 7.72-.27 1.97-.63 3.5-1.08 4.59-1.59 3.75-6.11 3.42-6.11.68 0-1.1 1.18-1.98 1.98-1.98"/><clipPath id="93f9d"><use xlink:href="#93f9a"/></clipPath><clipPath id="93f9m"><use xlink:href="#93f9b"/></clipPath></defs><g><g transform="translate(-825 -66)"><g><g><use xlink:href="#93f9c"/></g><g><g/><g clip-path="url(#93f9d)"><use fill="#e6007e" xlink:href="#93f9e"/></g></g><g><use fill="#e6007e" xlink:href="#93f9f"/></g><g><use xlink:href="#93f9g"/></g><g><use xlink:href="#93f9h"/></g><g><use xlink:href="#93f9i"/></g><g><use xlink:href="#93f9j"/></g><g><use xlink:href="#93f9k"/></g><g><use xlink:href="#93f9l"/></g><g><g/><g clip-path="url(#93f9m)"><use xlink:href="#93f9n"/></g></g><g><use xlink:href="#93f9o"/></g><g><use xlink:href="#93f9p"/></g><g><use xlink:href="#93f9q"/></g><g><use xlink:href="#93f9r"/></g><g><use xlink:href="#93f9s"/></g><g><use xlink:href="#93f9t"/></g></g></g></g></svg>