<svg xmlns="http://www.w3.org/2000/svg" xmlns:xlink="http://www.w3.org/1999/xlink" width="28" height="16"><defs><path id="a" d="M1112.85 3494.45a14.53 14.53 0 0 0-2.88-3.41l-.03-.03-.01-.01-.02-.02h-.01c-.62-.6-1.02-1-1.18-1.2-.3-.38-.37-.78-.2-1.18.11-.3.55-.94 1.3-1.91l.95-1.24c1.69-2.24 2.41-3.67 2.2-4.3l-.1-.14c-.05-.09-.2-.17-.45-.24a2.3 2.3 0 0 0-.93-.04l-4.2.03a.54.54 0 0 0-.3 0l-.18.05-.07.04-.06.04a.65.65 0 0 0-.16.16 1 1 0 0 0-.15.25 23.86 23.86 0 0 1-2.55 4.86 5.29 5.29 0 0 1-1.31 1.48c-.17.13-.3.18-.38.16l-.25-.06a.97.97 0 0 1-.33-.36 1.6 1.6 0 0 1-.16-.57 6.29 6.29 0 0 1-.05-1.29l.02-.61a36.3 36.3 0 0 1 .06-2.24l.01-.8a2.28 2.28 0 0 0-.2-1.13.79.79 0 0 0-.3-.35c-.13-.08-.3-.15-.5-.2a9.69 9.69 0 0 0-1.96-.19c-1.8-.02-2.97.1-3.48.35-.2.11-.4.26-.56.44-.17.21-.2.33-.07.35.58.09 1 .3 1.24.63l.09.17a6.79 6.79 0 0 1 .34 1.74 11.38 11.38 0 0 1-.15 3 2.37 2.37 0 0 1-.37 1.02.25.25 0 0 1-.07.07 1.1 1.1 0 0 1-.4.07c-.13 0-.3-.07-.5-.2a3.5 3.5 0 0 1-.6-.56c-.2-.24-.44-.58-.7-1-.27-.43-.54-.94-.82-1.52l-.23-.43a36.45 36.45 0 0 1-1.27-2.7.96.96 0 0 0-.35-.46l-.07-.05a1.55 1.55 0 0 0-.57-.22l-4 .03c-.4 0-.68.1-.83.28l-.06.09a.47.47 0 0 0-.04.23c0 .1.03.24.09.4a48.22 48.22 0 0 0 3.69 7.05 36.37 36.37 0 0 0 2.98 3.97l.37.35c.23.23.57.51 1.03.84.45.32.95.65 1.5.96a8.14 8.14 0 0 0 4.04 1.02h1.68c.34-.03.6-.14.77-.32l.06-.08a1.49 1.49 0 0 0 .16-.67c0-.42.02-.8.1-1.13.07-.34.15-.59.24-.76a1.87 1.87 0 0 1 .57-.64.95.95 0 0 1 .11-.05c.24-.08.51 0 .83.22.31.23.6.51.89.85.27.34.6.71 1 1.13.38.42.72.73 1.01.94l.3.17c.19.12.44.23.75.32.31.1.59.12.82.08l3.73-.06c.37 0 .66-.06.86-.19.2-.12.33-.25.37-.4.04-.14.04-.3 0-.5a1.83 1.83 0 0 0-.1-.38z"/></defs><use fill="#e6007e" xlink:href="#a" transform="translate(-1085 -3480)"/></svg>