<svg xmlns="http://www.w3.org/2000/svg" viewBox="9663.001 787 29.274 29.385"><g data-name="telephone (1)"><path data-name="Path 74" d="M9668.933 806.533a31.174 31.174 0 0 0 10.369 8.123 16.139 16.139 0 0 0 5.8 1.717c.14.006.274.012.414.012a4.805 4.805 0 0 0 3.726-1.6.133.133 0 0 0 .024-.03 15.689 15.689 0 0 1 1.175-1.218c.286-.274.578-.56.859-.852a2.94 2.94 0 0 0-.011-4.385l-3.659-3.659a2.962 2.962 0 0 0-2.143-.986 3.062 3.062 0 0 0-2.168.98l-2.18 2.18c-.2-.116-.408-.219-.6-.317a7.529 7.529 0 0 1-.67-.365 23.07 23.07 0 0 1-5.51-5.017 13.285 13.285 0 0 1-1.863-2.971 37.198 37.198 0 0 0 1.626-1.589c.183-.189.371-.378.56-.566a3.122 3.122 0 0 0 1.007-2.19 3.1 3.1 0 0 0-1.011-2.192l-1.812-1.813c-.213-.213-.414-.42-.621-.633-.4-.414-.822-.84-1.236-1.224a3.035 3.035 0 0 0-2.143-.938 3.125 3.125 0 0 0-2.168.944l-2.277 2.277a4.679 4.679 0 0 0-1.394 3 11.269 11.269 0 0 0 .846 4.871 28.339 28.339 0 0 0 5.06 8.441zm-4.421-13.188a3.221 3.221 0 0 1 .968-2.07l2.265-2.266a1.64 1.64 0 0 1 1.12-.518 1.556 1.556 0 0 1 1.1.53c.408.378.792.773 1.206 1.193.207.213.42.426.633.645l1.814 1.814a1.653 1.653 0 0 1 .571 1.14 1.653 1.653 0 0 1-.572 1.139c-.189.189-.378.384-.566.572-.566.572-1.1 1.114-1.681 1.632l-.03.03a1.19 1.19 0 0 0-.3 1.352l.018.049a14.33 14.33 0 0 0 2.131 3.477 24.349 24.349 0 0 0 5.87 5.346 8.716 8.716 0 0 0 .8.438 7.529 7.529 0 0 1 .67.365c.024.012.043.024.067.037a1.273 1.273 0 0 0 .591.152 1.291 1.291 0 0 0 .907-.414l2.277-2.277a1.611 1.611 0 0 1 1.114-.542 1.529 1.529 0 0 1 1.078.542l3.672 3.666a1.468 1.468 0 0 1-.018 2.3 20.62 20.62 0 0 1-.81.81 17.535 17.535 0 0 0-1.27 1.313 3.343 3.343 0 0 1-2.612 1.108c-.1 0-.213-.006-.317-.012a14.662 14.662 0 0 1-5.249-1.571 29.616 29.616 0 0 1-9.87-7.725 27.125 27.125 0 0 1-4.81-8.007 9.821 9.821 0 0 1-.767-4.248z"/></g></svg>