<svg xmlns="http://www.w3.org/2000/svg" viewBox="-575 2195 10 9"><path data-name="Path 36" d="M-567.386 2198.415a3.346 3.346 0 1 0-3.162 4.46 3.306 3.306 0 0 0 2.311-.939.552.552 0 0 1 .787.017.567.567 0 0 1-.016.8 4.412 4.412 0 0 1-3.083 1.247 4.5 4.5 0 1 1 4.12-6.206l.381-.794a.553.553 0 0 1 .753-.233.566.566 0 0 1 .23.761l-1.07 2.223-.017.036a.556.556 0 0 1-.329.274.549.549 0 0 1-.419-.041.555.555 0 0 1-.052-.031l-2.055-1.25a.566.566 0 0 1-.23-.761.553.553 0 0 1 .753-.233z" fill="#337ab7"/></svg>