<svg xmlns="http://www.w3.org/2000/svg" viewBox="7368 1752 60 60"><defs><style>.cls-1{fill:#543521}</style><clipPath id="clip-path"><path id="Rectangle_122" data-name="Rectangle 122" class="cls-1" transform="translate(433 1200)" d="M0 0h60v60H0z"/></clipPath></defs><g id="Mask_Group_10" data-name="Mask Group 10" transform="translate(6935 552)" clip-path="url(#clip-path)"><g id="delivery-truck" transform="translate(433 1200)"><g id="Group_133" data-name="Group 133"><g id="Group_132" data-name="Group 132"><path id="Path_60" data-name="Path 60" class="cls-1" d="M59.4 29.218l-3.462-2.01-1.978-8.45a4.928 4.928 0 0 0-4.817-3.82H39.2V13.36a1.2 1.2 0 0 0-1.2-1.2H1.2a1.2 1.2 0 0 0-1.2 1.2v28.49a1.2 1.2 0 0 0 1.2 1.2h3.836a5.986 5.986 0 0 0 11.731 0h24.2a5.986 5.986 0 0 0 11.731 0H58.8a1.2 1.2 0 0 0 1.2-1.2v-11.6a1.2 1.2 0 0 0-.6-1.032zM10.9 45.445a3.6 3.6 0 1 1 3.6-3.6 3.6 3.6 0 0 1-3.6 3.6zm25.91-9.077H26.029a1.2 1.2 0 1 0 0 2.39H36.81v1.9H16.767a5.986 5.986 0 0 0-11.731 0H2.39v-6.185h34.42v1.9zm0-20.235v15.949H2.39V14.555h34.42zm9.324 1.2h3.015a2.546 2.546 0 0 1 2.49 1.974l1.752 7.485h-7.258v-9.463zm.7 28.116a3.6 3.6 0 0 1-3.586-3.356 1.205 1.205 0 0 0 0-.479 3.595 3.595 0 1 1 3.586 3.834zm10.775-10.467h-2.273v-1.265h2.274zm0-3.656h-3.468a1.2 1.2 0 0 0-1.2 1.2v3.656a1.2 1.2 0 0 0 1.2 1.2h3.469v3.282h-4.916a5.986 5.986 0 0 0-11.731 0H39.2V17.329h4.543v10.654a1.2 1.2 0 0 0 1.2 1.2h9.637l3.034 1.762v.386z"/></g></g><g id="Group_135" data-name="Group 135"><g id="Group_134" data-name="Group 134"><path id="Path_61" data-name="Path 61" class="cls-1" d="M22 36.368h-1.013a1.2 1.2 0 0 0 0 2.39H22a1.2 1.2 0 0 0 0-2.39z"/></g></g></g></g></svg>