<svg xmlns="http://www.w3.org/2000/svg" viewBox="7375 1815 46.459 46.459"><defs><style>.cls-1{fill:#543521}</style><clipPath id="clip-path"><path id="Rectangle_122" data-name="Rectangle 122" class="cls-1" transform="translate(433 1200)" d="M0 0h46.459v46.459H0z"/></clipPath></defs><g id="Mask_Group_11" data-name="Mask Group 11" transform="translate(6942 615)" clip-path="url(#clip-path)"><g id="wallet" transform="translate(433.233 1200)"><path id="Path_62" data-name="Path 62" class="cls-1" d="M46.294 21.643h-2.229V11.389a4.463 4.463 0 0 0-4.458-4.458h-3.019L33.5 1.376A2.675 2.675 0 0 0 29.86.337L18 6.931H4.759A4.463 4.463 0 0 0 .3 11.389V42a4.463 4.463 0 0 0 4.458 4.458h34.849A4.463 4.463 0 0 0 44.065 42v-8.99h2.229V21.643zM39.607 8.714a2.67 2.67 0 0 1 2.645 2.378H38.9l-1.32-2.378zM30.728 1.9a.908.908 0 0 1 1.212.346l4.922 8.849H14.191zM42.282 42a2.678 2.678 0 0 1-2.675 2.675H4.759A2.678 2.678 0 0 1 2.084 42V11.389a2.678 2.678 0 0 1 2.675-2.675H14.8l-4.276 2.378h-5.2a.892.892 0 0 0 0 1.783h36.958v8.768h-6.52a5.5 5.5 0 0 0-5.492 5.492v.383a5.5 5.5 0 0 0 5.492 5.492h6.52V42zm2.229-10.773h-8.75a3.713 3.713 0 0 1-3.709-3.709v-.383a3.713 3.713 0 0 1 3.709-3.709h8.749zM38.492 27.4a1.969 1.969 0 1 1-1.969-1.969 1.968 1.968 0 0 1 1.969 1.969z" transform="translate(-.301)"/></g></g></svg>