<svg xmlns="http://www.w3.org/2000/svg" viewBox="7377 1880.724 44.459 49.724"><defs><style>.cls-1{fill:#543521}</style></defs><g id="coins" transform="translate(7349.89 1880.724)"><g id="Group_151" data-name="Group 151" transform="translate(27.11)"><g id="Group_150" data-name="Group 150"><path id="Path_68" data-name="Path 68" class="cls-1" d="M69.841 294.88a3.748 3.748 0 0 0-3.608-.185l-8.128 3.945v-.429a3.564 3.564 0 0 0-3.639-3.624h-7.871a16.385 16.385 0 0 1-4.783-.772l-5.128-1.628v-2.068a1.082 1.082 0 0 0-1.1-1.157h-7.18a1.253 1.253 0 0 0-1.3 1.157v19.028a1.32 1.32 0 0 0 1.3 1.237h7.18a1.151 1.151 0 0 0 1.1-1.237v-1.916l.856.668a12.452 12.452 0 0 0 7.729 2.724h6.917a12.225 12.225 0 0 0 6.908-2.152l10.872-7.43a3.683 3.683 0 0 0-.125-6.161zM34.29 307.99H29.5v-16.634h4.79zm34.326-8.936l-10.872 7.44a9.839 9.839 0 0 1-5.558 1.735h-6.917a10.05 10.05 0 0 1-6.229-2.2l-2.356-1.874v-9.468L41.1 296.1a18.766 18.766 0 0 0 5.49.879h7.872a1.172 1.172 0 0 1 1.245 1.231v1.447a20.666 20.666 0 0 1-8.2.54 1.173 1.173 0 0 0-1.347.991 1.206 1.206 0 0 0 1 1.372 19.3 19.3 0 0 0 3.055.235 24.289 24.289 0 0 0 7.167-1.107 1.233 1.233 0 0 0 .13-.053h.01l9.8-4.786A1.281 1.281 0 0 1 69.175 298a1.281 1.281 0 0 1-.559 1.055z" transform="translate(-27.11 -260.899)"/><path id="Path_69" data-name="Path 69" class="cls-1" d="M152.323 111.181a5.685 5.685 0 1 0-5.685-5.684 5.691 5.691 0 0 0 5.685 5.684zm0-8.976a3.291 3.291 0 1 1-3.291 3.291 3.295 3.295 0 0 1 3.291-3.291z" transform="translate(-135.03 -90.118)"/><path id="Path_70" data-name="Path 70" class="cls-1" d="M252.135 11.369a5.685 5.685 0 1 0-5.684-5.685 5.691 5.691 0 0 0 5.684 5.685zm0-8.976a3.291 3.291 0 1 1-3.291 3.291 3.295 3.295 0 0 1 3.291-3.291z" transform="translate(-225.148)"/><path id="Path_71" data-name="Path 71" class="cls-1" d="M253.367 200.857a5.685 5.685 0 1 0 5.685 5.684 5.691 5.691 0 0 0-5.685-5.684zm0 8.976a3.291 3.291 0 1 1 3.291-3.291 3.295 3.295 0 0 1-3.291 3.291z" transform="translate(-226.261 -181.35)"/></g></g></g></svg>