<svg xmlns="http://www.w3.org/2000/svg" viewBox="7368 1941 60 60"><defs><style>.cls-1{fill:#543521}</style><clipPath id="clip-path"><path id="Rectangle_122" data-name="Rectangle 122" class="cls-1" transform="translate(433 1200)" d="M0 0h60v60H0z"/></clipPath></defs><g id="Mask_Group_13" data-name="Mask Group 13" transform="translate(6935 741)" clip-path="url(#clip-path)"><path id="hanger" class="cls-1" d="M57.514 38.664L35.72 26.233a11.435 11.435 0 0 0-4.387-1.363v-1.511a5.649 5.649 0 1 0-6.982-5.49 1.333 1.333 0 1 0 2.667 0A2.982 2.982 0 1 1 30 20.851a1.333 1.333 0 0 0-1.333 1.333v2.686a11.406 11.406 0 0 0-4.38 1.36L2.516 38.647a4.87 4.87 0 0 0 2.353 9.133h50.262a4.869 4.869 0 0 0 2.384-9.115zm-2.384 6.449H4.869a2.2 2.2 0 0 1-1.048-4.142l21.79-12.428a9.442 9.442 0 0 1 8.784 0l21.814 12.446a2.2 2.2 0 0 1-1.079 4.124z" transform="translate(433 1200)"/></g></svg>