<svg xmlns="http://www.w3.org/2000/svg" xmlns:xlink="http://www.w3.org/1999/xlink" width="830" height="292" viewBox="0 0 830 292"><defs><path id="iyy2a" d="M549 518a11 11 0 0 0 11-11h797a11 11 0 0 0 12 10.96v259.08c-.33-.02-.66-.04-1-.04a11 11 0 0 0-10.96 12H559.96A11 11 0 0 0 549 777z"/><path id="iyy2b" d="M549 518a11 11 0 0 0 11-11h797a11 11 0 0 0 12 10.96v259.08c-.33-.02-.66-.04-1-.04a11 11 0 0 0-10.96 12H559.96A11 11 0 0 0 549 777z"/><mask id="iyy2d" width="2" height="2" x="-1" y="-1"><path fill="#fff" d="M536 494h844v306H536z"/><use xlink:href="#iyy2a"/></mask><filter id="iyy2c" width="878" height="342" x="519" y="477" filterUnits="userSpaceOnUse"><feOffset dy="2" in="SourceGraphic" result="FeOffset1023Out"/><feGaussianBlur in="FeOffset1023Out" result="FeGaussianBlur1024Out" stdDeviation="2.8 2.8"/></filter><clipPath id="iyy2e"><use fill="#fff" xlink:href="#iyy2b"/></clipPath></defs><g><g transform="translate(-544 -504)"><g filter="url(#iyy2c)"><use fill="none" stroke-opacity=".1" stroke-width="0" mask="url(&quot;#iyy2d&quot;)" xlink:href="#iyy2a"/><use fill="#292929" fill-opacity=".1" xlink:href="#iyy2a"/></g><use fill="#fff" xlink:href="#iyy2a"/><use fill="#fff" fill-opacity="0" stroke="#e6007e" stroke-miterlimit="50" stroke-width="4" clip-path="url(&quot;#iyy2e&quot;)" xlink:href="#iyy2a"/></g></g></svg>